
<svg width="84px" height="84px" viewBox="0 0 84 84" version="1.1" xmlns="http://www.w3.org/2000/svg" xmlns:xlink="http://www.w3.org/1999/xlink">
    <g id="Page-1" stroke="none" stroke-width="1" fill="none" fill-rule="evenodd">
        <g id="Roommates" transform="translate(-25.000000, -190.000000)" fill="#00B561" fill-rule="nonzero">
            <g id="prohibition-sign" transform="translate(25.000000, 190.000000)">
                <path d="M41.9979,0 C18.8399184,0 0,18.8412 0,42 C0,53.51178 4.65742657,63.95382 12.1843218,71.54805 C12.2261123,71.59614 12.2597126,71.64969 12.3052831,71.69526 C12.3512735,71.74188 12.4050341,71.77401 12.4533345,71.81622 C20.0461705,79.3422 30.4876849,84 41.9979,84 C65.1588216,84 84,65.1588 84,42 C84,18.8412 65.1588216,0 41.9979,0 Z M41.9979,5.50851 C51.0702007,5.50851 59.3734737,8.84373 65.7642576,14.34195 L14.3412534,65.76465 C8.84381844,59.37372 5.50835508,51.07137 5.50835508,42 C5.50835508,21.87864 21.8780188,5.50851 41.9979,5.50851 Z M41.9979,78.4917 C32.9272793,78.4917 24.6254763,75.15711 18.2361624,69.65931 L69.6587466,18.23598 C75.1566016,24.6267 78.4916449,32.92821 78.4916449,42 C78.4916449,62.12136 62.1207212,78.4917 41.9979,78.4917 Z" id="Shape"></path>
            </g>
        </g>
    </g>
</svg>